<?xml version="1.0" standalone="no"?><!DOCTYPE svg PUBLIC "-//W3C//DTD SVG 1.1//EN" "http://www.w3.org/Graphics/SVG/1.1/DTD/svg11.dtd"><svg t="1571300146087" class="icon" viewBox="0 0 1024 1024" version="1.1" xmlns="http://www.w3.org/2000/svg" p-id="1149" width="48" height="48" xmlns:xlink="http://www.w3.org/1999/xlink"><defs><style type="text/css"></style></defs><path d="M63.81 512c2.04-148.56 27.83-271.56 103.27-344.92C240.44 91.65 363.44 65.85 512 63.81c148.55 2.04 271.55 27.83 344.92 103.27C932.35 240.44 958.15 363.45 960.19 512c-2.04 148.55-27.84 271.55-103.27 344.92C783.55 932.35 660.56 958.15 512 960.19c-148.56-2.04-271.56-27.83-344.92-103.27C91.65 783.56 65.85 660.55 63.81 512z" p-id="1150" data-spm-anchor-id="a313x.7781069.0.i0" class="selected" fill="#1296db"></path><path d="M237.73 639.19c-8.54 0-16.97-3.92-22.4-11.35-9.04-12.34-6.35-29.69 6.01-38.73l105.33-77.08c9.28-6.81 21.79-7.13 31.45-0.88l91.71 59.51 89.01-197.23c4.53-10.04 14.14-16.66 25.59-16.32 11.02 0.14 20.91 6.77 25.2 16.9l71.42 168.68 127.74 11.62c15.24 1.39 26.47 14.87 25.09 30.12-1.39 15.24-14.9 26.32-30.12 25.09l-144.28-13.14a27.733 27.733 0 0 1-23-16.79L563.3 453.98l-76.21 168.88a27.71 27.71 0 0 1-17.46 15.2 27.665 27.665 0 0 1-22.9-3.34l-102.75-66.67-89.92 65.79a27.542 27.542 0 0 1-16.33 5.35z" fill="#FFFFFF" p-id="1151"></path></svg>